# xmcd CD database file
#
# Track frame offsets:
#	150
#	17435
#	40079
#	54194
#	72796
#	83579
#	102318
#	121730
#
# Disc length: 1868 seconds
#
# Revision: 0
# Processed by: cddbd v1.5.2PL0 Copyright (c) Steve Scherf et al.
# Submitted via: CDex 1.70beta2
#
DISCID=51074a08
DTITLE=Trixi Field - Green
DYEAR=2005
DGENRE=Jazz
TTITLE0=Wishes To The Moon
TTITLE1=Green
TTITLE2=Into The Night
TTITLE3=Give Me A Man I Can Love
TTITLE4=Run The Extra Mile
TTITLE5=Lungotevere
TTITLE6=Harry's Waterside Bar
TTITLE7=Chance (Live)
EXTD=YEAR: 2005
EXTT0=
EXTT1=
EXTT2=
EXTT3=
EXTT4=
EXTT5=
EXTT6=
EXTT7=
PLAYORDER=
